<?xml version="1.0" standalone="no"?>
<!DOCTYPE svg PUBLIC "-//W3C//DTD SVG 20010904//EN"
 "http://www.w3.org/TR/2001/REC-SVG-20010904/DTD/svg10.dtd">
<svg version="1.0" xmlns="http://www.w3.org/2000/svg"
 width="512.000000pt" height="512.000000pt" viewBox="0 0 512.000000 512.000000"
 preserveAspectRatio="xMidYMid meet">

<g transform="translate(0.000000,512.000000) scale(0.100000,-0.100000)"
fill="#000000" stroke="none">
<path d="M540 4256 c0 -27 67 -643 75 -693 l6 -33 70 0 70 0 75 116 76 116 75
-116 75 -116 68 0 69 0 6 33 c8 50 75 666 75 693 0 23 -3 24 -73 24 l-74 0
-22 -212 c-13 -117 -26 -229 -30 -248 l-7 -34 -78 122 c-43 67 -81 122 -85
122 -3 0 -42 -56 -86 -125 -43 -68 -80 -123 -82 -122 -1 2 -14 114 -29 250
l-28 247 -73 0 c-70 0 -73 -1 -73 -24z"/>
<path d="M1599 4247 c-73 -37 -130 -104 -151 -176 -20 -71 -17 -273 6 -341 26
-74 102 -150 176 -175 113 -38 232 -14 310 64 76 77 85 103 88 281 l3 156 -33
64 c-23 44 -48 76 -82 101 -59 45 -104 59 -189 59 -54 0 -76 -6 -128 -33z
m215 -136 c57 -38 66 -64 66 -199 0 -100 -3 -130 -17 -154 -57 -95 -201 -94
-258 2 -17 30 -20 52 -20 150 0 127 12 162 71 201 39 25 119 25 158 0z"/>
<path d="M2182 3908 l3 -373 72 -3 72 -3 3 138 3 138 50 -105 c28 -57 57 -118
65 -135 15 -29 17 -30 98 -33 52 -2 82 1 82 8 0 6 -34 77 -75 159 l-74 149 30
12 c16 7 47 33 69 57 97 111 64 275 -70 343 -34 17 -59 20 -185 20 l-145 0 2
-372z m287 196 c12 -15 21 -34 21 -44 0 -10 -9 -29 -21 -44 -18 -23 -28 -26
-80 -26 l-59 0 0 70 0 70 59 0 c52 0 62 -3 80 -26z"/>
<path d="M2782 3908 l3 -373 73 -3 72 -3 0 146 c0 80 3 145 6 145 12 0 51 -24
77 -49 44 -40 60 -79 66 -161 l6 -75 74 -3 73 -3 -4 93 c-5 109 -32 175 -100
245 l-41 42 47 51 c65 69 88 126 94 233 l4 87 -76 0 -76 0 0 -60 c0 -69 -19
-122 -58 -163 -24 -26 -72 -57 -87 -57 -3 0 -5 63 -5 140 l0 140 -75 0 -75 0
2 -372z"/>
<path d="M3682 3908 l3 -373 73 -3 72 -3 0 376 0 375 -75 0 -75 0 2 -372z"/>
<path d="M3982 3908 l3 -373 72 -3 73 -3 2 233 3 233 70 -108 c39 -59 106
-163 150 -230 l80 -122 75 0 75 0 3 373 2 372 -75 0 -75 0 0 -230 c0 -126 -3
-230 -7 -229 -5 0 -74 102 -154 227 l-146 227 -77 3 -76 3 2 -373z"/>
<path d="M3382 3908 l3 -73 73 -3 72 -3 0 76 0 75 -75 0 -76 0 3 -72z"/>
<path d="M0 3010 l0 -370 75 0 75 0 0 144 0 143 69 6 c76 6 131 30 173 74 101
106 66 289 -67 352 -39 18 -63 21 -185 21 l-140 0 0 -370z m280 200 c25 -25
26 -71 2 -100 -14 -18 -32 -24 -75 -28 l-57 -4 0 76 0 76 55 0 c42 0 60 -5 75
-20z"/>
<path d="M610 3011 l0 -371 75 0 75 0 1 133 0 132 64 -132 64 -133 85 0 86 0
-75 150 c-41 82 -75 152 -75 154 0 2 13 9 30 16 16 7 45 29 64 50 91 101 70
261 -46 337 -40 27 -47 28 -195 31 l-153 3 0 -370z m280 199 c27 -27 26 -81 0
-105 -13 -11 -41 -20 -75 -23 l-55 -4 0 76 0 76 55 0 c42 0 60 -5 75 -20z"/>
<path d="M1385 3352 c-67 -32 -117 -83 -149 -151 -18 -40 -21 -65 -21 -196 0
-143 1 -152 27 -201 28 -54 86 -112 140 -140 20 -11 64 -19 114 -22 72 -4 89
-1 136 20 64 30 119 83 150 147 20 39 23 65 26 178 5 178 -9 225 -86 303 -96
95 -219 118 -337 62z m206 -145 c56 -37 69 -76 69 -203 0 -121 -11 -152 -72
-198 -38 -27 -118 -27 -155 0 -60 45 -68 66 -71 192 -3 100 0 122 16 152 42
78 142 105 213 57z"/>
<path d="M2215 3362 c-266 -92 -341 -440 -135 -625 91 -82 121 -91 313 -95
l167 -4 0 221 0 221 -150 0 -150 0 0 -75 0 -75 75 0 75 0 0 -75 0 -75 -52 0
c-103 1 -185 50 -224 134 -50 108 -15 223 86 284 l54 32 143 0 143 0 0 75 0
75 -147 0 c-114 -1 -160 -5 -198 -18z"/>
<path d="M2710 3010 l0 -370 75 0 75 0 0 127 c0 73 4 123 9 117 5 -5 32 -62
61 -126 l53 -118 89 0 88 0 -76 151 c-58 118 -73 154 -62 160 7 5 16 9 20 9
17 0 81 66 99 101 41 81 17 205 -52 263 -58 49 -87 56 -239 56 l-140 0 0 -370z
m280 200 c27 -27 26 -81 0 -105 -13 -11 -41 -20 -75 -23 l-55 -4 0 76 0 76 55
0 c42 0 60 -5 75 -20z"/>
<path d="M3310 3010 l0 -370 225 0 225 0 0 70 0 70 -150 0 -150 0 0 75 0 75
75 0 75 0 0 75 0 75 -75 0 -75 0 0 75 0 75 150 0 150 0 0 75 0 75 -225 0 -225
0 0 -370z"/>
<path d="M4033 3355 c-30 -15 -61 -41 -77 -63 -71 -103 -42 -260 60 -323 28
-17 59 -24 131 -30 110 -8 133 -22 133 -79 0 -65 -13 -70 -203 -70 l-167 0 0
-75 0 -75 183 0 182 0 51 30 c68 39 104 106 104 195 0 51 -5 70 -32 115 -44
73 -93 98 -211 106 -78 6 -90 10 -108 33 -22 28 -19 63 8 93 13 15 39 18 182
20 l166 3 3 73 3 72 -179 0 c-171 0 -180 -1 -229 -25z"/>
<path d="M4725 3361 c-170 -77 -165 -333 7 -405 21 -9 65 -16 98 -16 112 0
159 -40 130 -110 -7 -17 -13 -31 -14 -32 0 -1 -80 -4 -176 -7 l-175 -6 -3 -73
-3 -73 195 3 194 3 44 30 c114 80 127 258 26 352 -38 35 -94 54 -185 60 -70 5
-86 10 -98 27 -21 29 -18 73 5 96 18 18 33 20 185 20 l165 0 0 75 0 75 -177 0
c-151 0 -184 -3 -218 -19z"/>
<path d="M2 1958 l3 -523 2558 -3 2557 -2 0 525 0 525 -1505 0 -1505 0 0 -75
0 -75 357 0 358 0 -375 -375 -375 -375 -640 0 -640 0 375 375 375 375 207 0
208 0 0 75 0 75 -980 0 -980 0 2 -522z m948 -3 l-375 -375 -210 2 -210 3 -3
373 -2 372 587 0 588 0 -375 -375z m3237 237 l-137 -137 53 -53 52 -52 190
190 190 190 217 0 218 0 0 -375 0 -375 -585 0 c-322 0 -585 3 -585 7 0 4 53
61 117 125 l118 118 -53 52 -52 53 -178 -178 -177 -177 -640 0 -640 0 375 375
375 375 640 0 640 0 -138 -138z"/>
<path d="M312 2108 l3 -73 73 -3 72 -3 0 76 0 75 -75 0 -76 0 3 -72z"/>
<path d="M612 2108 l3 -73 73 -3 72 -3 0 76 0 75 -75 0 -76 0 3 -72z"/>
<path d="M3090 2105 l0 -76 73 3 72 3 3 73 3 72 -76 0 -75 0 0 -75z"/>
<path d="M317 1283 c-4 -3 -7 -105 -7 -225 l0 -218 565 0 566 0 -3 73 -3 72
-488 3 -488 2 3 73 3 72 1198 3 1197 2 0 -75 0 -75 -485 0 -485 0 0 -75 0 -75
560 0 560 0 0 225 0 225 -1343 0 c-739 0 -1347 -3 -1350 -7z"/>
<path d="M3167 1283 c-4 -3 -7 -105 -7 -225 l0 -218 225 0 225 0 0 225 0 225
-218 0 c-120 0 -222 -3 -225 -7z m293 -218 l0 -75 -75 0 -75 0 0 68 c0 38 3
72 7 75 3 4 37 7 75 7 l68 0 0 -75z"/>
<path d="M3767 1283 c-4 -3 -7 -105 -7 -225 l0 -218 225 0 225 0 0 225 0 225
-218 0 c-120 0 -222 -3 -225 -7z m293 -218 l0 -75 -75 0 -75 0 0 68 c0 38 3
72 7 75 3 4 37 7 75 7 l68 0 0 -75z"/>
<path d="M4367 1283 c-4 -3 -7 -105 -7 -225 l0 -218 225 0 225 0 0 225 0 225
-218 0 c-120 0 -222 -3 -225 -7z m293 -218 l0 -75 -75 0 -75 0 0 68 c0 38 3
72 7 75 3 4 37 7 75 7 l68 0 0 -75z"/>
<path d="M1590 915 l0 -75 75 0 76 0 -3 73 -3 72 -72 3 -73 3 0 -76z"/>
</g>
</svg>
